<svg version="1" xmlns="http://www.w3.org/2000/svg" width="1066.667" height="1066.667" viewBox="0 0 800.000000 800.000000"><path d="M480.6 81.7c-.2.3-17.7 1.6-21.8 1.7-1.6.1-2.8.3-2.8.6s-1.7.6-3.8.7c-6.3.4-6.7.5-8.2 1-.8.3-2.8.7-4.5.8-1.6.1-3 .3-3 .5 0 .1-1.1.3-2.5.5s-3.8.6-5.5 1c-1.6.4-3.9.8-5 .9-1.2.1-2.6.6-3.3 1-.7.4-1.6.4-2.2.1-.5-.3-1-.1-1 .5s-1 1-2.2.9c-1.3-.2-2.8-.1-3.3.3-.6.3-3.7 1.3-7 2.2-3.3.8-9.4 2.7-13.5 4.1-4.1 1.4-7.9 2.7-8.5 2.8-.5.1-1.4.5-2 .9-.5.3-2.5.9-4.2 1.3-1.8.3-3.3 1-3.3 1.4 0 .4-.6.8-1.2.8-3.7 0-37 16.2-49.3 23.8-2.2 1.4-5 3.1-6.2 3.7-1.3.6-2.3 1.5-2.3 2s-.4.7-.8.4c-.5-.3-2 .5-3.5 1.8-1.4 1.2-4.6 3.5-7.1 5.1-2.6 1.6-4.6 3.3-4.6 3.8 0 .4-.5.5-1 .2-.6-.3-1.3.1-1.6.9-.3.9-1 1.6-1.6 1.6-.5 0-1.5.6-2.2 1.2-.7.7-2.5 2.2-4.1 3.3-1.5 1.1-4.1 3.2-5.6 4.7-1.6 1.5-2.9 2.5-2.9 2.3 0-.2-2.3 1.7-5.2 4.3-14.6 13.2-19.9 18.8-21.9 23-2.2 4.5-3.3 13.2-1.6 13.2.4 0 .5.4.2 1-.7 1.1 2.2 7.8 4.5 10.1.8.8 3.2 2.8 5.4 4.4 3.4 2.6 4.6 2.9 11.7 3 5.6 0 8.2-.4 8.8-1.3.5-.8 1.1-1.3 1.5-1.3.3.1 1 .1 1.4.1.5 0 4-3 7.9-6.8 8.2-7.7 16.2-14.7 23.8-20.7 5.6-4.5 24.7-17.6 27.3-18.8 1.2-.6 2.2-1.4 2.2-1.9 0-.4.6-.8 1.3-.8.7 0 2.9-1.1 5-2.5 2-1.4 3.7-2.3 3.7-2 0 .4 1.2-.2 2.8-1.2 1.5-1.1 5.5-3.2 9-4.8 3.4-1.6 6.2-3.4 6.2-3.9s.3-.7.6-.4c.3.3 4-.9 8.2-2.7 7.8-3.3 11.3-4.6 12.2-4.6.3-.1 1.1-.5 1.8-1.1.6-.6 1.2-.7 1.2-.3 0 .4.6.3 1.3-.3.7-.6 2.4-1.3 3.7-1.5 1.4-.3 3.7-1 5.3-1.6 1.5-.6 2.7-.7 2.7-.3 0 .4.4.2.8-.5.4-.6 1.9-1.3 3.2-1.5 1.4-.2 3.1-.7 3.8-1.1.6-.5 1.2-.6 1.2-.3s1.8-.1 3.9-.9c2.2-.7 5.5-1.6 7.5-1.9 2-.3 5.7-1.1 8.3-1.7 6.4-1.4 8.8-1.9 13.1-2.4 5.5-.7 12.5-1.6 14.2-1.8.8-.2 2.1-.6 2.8-1 .6-.5 1.2-.4 1.2 0 0 .5 1.5.7 3.3.5 7.3-1 46.3-.9 47.5 0 .8.7 1.2.7 1.2-.1 0-.7.5-.9 1.2-.5.7.5 2.8.9 4.8 1 4.9.3 11.4 1.2 18.5 2.5 3.3.6 7 1.2 8.2 1.3 1.2.1 2.5.5 2.8.8.4.4 1.3.4 2.1.1.8-.3 1.4-.1 1.4.3 0 .5 1 1 2.3 1.1 2.9.2 6.5 1 10.5 2.2 1.7.5 3.2.7 3.2.4 0-.3.6 0 1.4.6.7.6 2.5 1.2 4 1.3 1.4.1 2.6.6 2.6 1s.8.8 1.8.8c.9 0 4.2.9 7.2 2.1 3 1.1 6 2.2 6.5 2.3 2.1.6 5.1 1.8 6.7 2.7 1 .5 2.7.9 3.8.9 1.1 0 2 .4 2 .9s2.3 1.7 5 2.6c2.8.9 5 2.1 5 2.7 0 .6.3.8.7.5.5-.6 20 8.9 21.3 10.4.3.3 1.2.8 2 1.2 3.3 1.4 23.8 15.1 27.7 18.4 1.1 1 3.1 2.5 4.3 3.3 1.2.8 3.2 2.3 4.3 3.3 6.8 5.7 14.8 12.7 18.8 16.7 7.2 6.9 9.4 8.5 12.7 9.1.4 0 1.6.6 2.7 1.2 2.6 1.4 9.6 1 12.3-.6.6-.5 1.2-.5 1.2-.2 0 1.6 11.4-7.8 11.5-9.5.1-.3.6-1.5 1.3-2.7 1.6-3 2.3-10 1.1-12.9-.5-1.6-.5-2.4.2-2.4.6 0 .3-.7-.5-1.6-.9-.8-1.6-2-1.6-2.5 0-1.2-3.3-5-10-11.4-5.9-5.7-7.7-7.3-15.5-13.8-2.7-2.3-6-5.2-7.2-6.4-1.3-1.2-2.3-2-2.3-1.7 0 .3-.6 0-1.2-.6-.7-.5-2.9-2.4-4.8-4s-3.8-3-4.2-3c-.4 0-1.3-.6-2-1.3-1.6-1.5-12.3-8.6-15.8-10.5-1.3-.7-2.7-1.6-3-2-.6-.8-3.5-2.5-9.5-5.6-2.2-1.2-4.2-2.4-4.5-2.7-.5-.6-26.1-13.4-27-13.4-.3-.1-1.5-.6-2.7-1.3-1.3-.7-2.3-1-2.3-.7 0 .3-1-.1-2.2-.8-1.3-.8-4.8-2.3-7.8-3.3s-5.7-2.1-6-2.4c-.3-.3-1.2-.6-2-.8-.8-.1-2.4-.7-3.5-1.2-1.1-.4-3.3-1.2-5-1.6-1.6-.4-3.2-.8-3.5-.9-.3-.1-2-.6-3.7-1-1.8-.4-3-1.1-2.7-1.6.3-.5-.2-.6-1-.3s-2.1.2-2.8-.2c-.7-.4-1.9-.9-2.8-1.1-.8-.1-2.6-.5-4-.7-1.4-.2-2.5-.5-2.5-.6 0-.1-.7-.3-1.5-.5-6.8-1.7-14.5-3.4-18.5-4.1-1.6-.3-4.1-.7-5.5-1-1.4-.2-4.5-.7-7-1-5.6-.8-8.5-1.2-8.5-1.4 0-.2-10.4-1.1-16.2-1.3-3.4-.2-6.5-.6-6.9-.9-.4-.4-1.5-.3-2.5.3-1.1.5-1.9.6-1.9.2 0-.7-31.7-1.2-32.4-.6z"/><path d="M481 173c0 .3-2.4.6-5.3.7-5.5.2-15.2 1-15.2 1.3 0 .1-1.1.4-2.5.6-1.4.2-4.1.6-6 .9-1.9.4-4.4.8-5.5.9-1.1.2-2.7.6-3.5.9-.8.3-5.3 1.5-10 2.7-11.9 3-29.8 9.2-35.5 12.3-1.1.6-2.4 1.2-3 1.3-1.6.3-12.4 5.8-19.5 9.9-16.1 9.4-17 9.9-17 10.8 0 .5-.4.5-1 .2-.5-.3-1.5.3-2.2 1.5-.7 1.1-1.7 2-2.1 2-.5 0-4.6 2.9-9.1 6.4-21.2 16.8-28.6 25.1-29.1 32.6 0 1.4-.4 3.1-.8 3.7-.4.6-.3 1.4.3 1.8.6.4.8 1.1.5 1.6-1.1 1.6 3.2 9.7 7.1 13.3 5.7 5.4 15.5 7.5 22.4 4.8 1.4-.5 3-1.1 3.5-1.3 1-.3 4.3-3.1 10.9-9.4 1.7-1.7 5.4-4.8 8-7 2.7-2.2 5.8-4.8 6.8-5.8 1-.9 1.8-1.4 1.8-1 0 .5.4.3.8-.3 1.1-1.6 15.8-11.4 17.1-11.4.6 0 1.1-.4 1.1-.9s1.1-1.2 2.5-1.5c1.4-.4 2.5-1.1 2.5-1.7 0-.6.4-.8.9-.4.5.3 1.2.1 1.6-.5.5-.8 5.8-3.6 8.5-4.5.3-.1 3-1.3 6-2.7 6.5-2.9 13.2-5.3 14.3-5 .4.1.7-.3.7-1 0-.6.3-.8.6-.5.4.3 1.4.2 2.4-.3 1.8-1 6.4-2.1 9.3-2.3.9-.1 1.7-.5 1.7-.9 0-.7 8.7-2.3 9.3-1.7.2.2 1-.1 1.8-.8.8-.6 2.7-1 4.2-.9 1.5.2 2.7-.1 2.7-.6s.6-.8 1.3-.5c.6.2 2.4 0 4-.4 1.8-.5 2.7-.4 2.7.4s.3.7.9-.2c.5-.7 1.4-1 2-.7.6.4 1.1.4 1.1-.1 0-.4 2-.7 4.5-.6 2.5 0 4.8-.3 5.1-.8.3-.5 1.3-.5 2.3.1 1 .5 2.1.7 2.4.4.9-1 8.7-1 8.7 0 0 .5.6.3 1.3-.3.8-.6 1.6-.9 1.8-.7.2.2 2.1.6 4.2.9 2.6.4 3.5.2 3.1-.5-.4-.7-.2-.8.4-.4 1.7 1 4.5 1.5 10.8 1.7 3 .1 5.7.6 6 1.1.3.5.9.6 1.4.3.9-.5 16.8 2.3 18.4 3.2.8.5 3.2 1 8.4 1.5.6.1 1.2.6 1.2 1.1 0 .6.3.8.6.4.3-.3 2.5.1 4.7 1 2.3.8 4.7 1.6 5.2 1.7 1.3.4 4.2 1.5 8 3.1 1.7.7 5.1 2.1 7.7 3.1 2.7 1.1 4.8 2.2 4.8 2.6 0 .5.6.8 1.4.8 1.7 0 10.9 4.9 11.8 6.4.4.6.8.7.8.3 0-.4 2 .6 4.4 2.3 2.5 1.6 4.9 3 5.4 3 .6 0 1.2.3 1.4.7.2.5 2.6 2.4 5.3 4.2 2.8 1.9 5.2 3.8 5.5 4.1.3.3 1.5 1.3 2.8 2.2 1.3.8 5.9 4.8 10.3 8.8 10.7 9.7 12 10.7 16.5 12.2 4.8 1.7 12.1 1.4 15.2-.5.6-.5 1.2-.5 1.2 0 0 .4.4.3.8-.2.4-.6 1.6-1.5 2.7-2.1 3.2-1.8 8.7-9.5 8.2-11.6-.3-1-.2-1.6.3-1.3.4.3 1-1.1 1.2-3 .5-4-1.8-13.8-3.2-14.3-.6-.2-1-.8-1-1.4 0-1.4-13.5-14.1-22-20.8-2.5-1.9-4.6-3.8-4.8-4.2-.2-.5-1-.8-1.8-.8s-1.4-.3-1.4-.8c0-.4-3-2.7-6.7-5.2-3.8-2.5-7-4.7-7.3-5-.3-.3-2.1-1.4-4-2.4-1.9-1.1-3.7-2.2-4-2.5-.5-.6-5.8-3.5-16.5-8.9-2.7-1.4-5.2-2.6-5.5-2.7-.3-.1-2.7-1.1-5.3-2.3-2.7-1.2-5.1-2.2-5.3-2.2-.2 0-2.3-.8-4.7-1.8-4.2-1.9-12.9-5-15.7-5.7-.8-.2-3.9-1.1-6.7-1.9-2.9-.8-5.3-1.1-5.3-.8 0 .3-.5.1-1.2-.6s-2.2-1.2-3.5-1.2c-1.3 0-2.3-.3-2.3-.8 0-.4-1.2-.8-2.7-.8-6.2-.3-11.3-.9-11.3-1.5 0-.3-.6-.6-1.2-.6-.7 0-4-.4-7.3-.8s-8-.9-10.5-1.2c-7.1-.6-39-.9-39-.3z"/><path d="M482.8 263.5c-.3.3-2.5.8-4.9 1.1-2.4.3-6 .9-7.9 1.3-2 .4-4.3.7-5.3.5-.9-.1-1.7.3-1.7.9 0 .5-.2.8-.6.5-.3-.3-2.6.1-5.2.9s-5.6 1.6-6.8 1.9c-5.1 1-30.5 12.3-32.4 14.3-.3.4-1.8 1.3-3.5 2.1-3.3 1.6-4.6 2.6-7.6 5.2-1 1-1.9 1.5-1.9 1.2 0-.3-.6.1-1.3.8-.8.7-2.9 2.4-4.7 3.8-1.9 1.4-4.2 3.3-5.2 4.2-1 1-2.3 1.8-3 1.8-.6 0-.9.3-.6.6.3.3-1.6 2.6-4.3 5.1-2.7 2.5-7.5 7.8-10.6 11.7-3.2 3.9-6.1 7.2-6.5 7.4-.5.2-.8 1-.8 1.7s-.3 1.5-.7 1.7c-1.1.4-6.3 8.6-6.3 9.8 0 .5-.3 1-.8 1-.4 0-1.6 2-2.7 4.5s-2.4 4.5-2.8 4.5c-.5 0-.5.4-.2 1 .8 1.2 1 1.2-10 1.4-4.9.1-9.6-.2-10.2-.7-.7-.5-1.3-.6-1.3-.1 0 1.1-29 1.1-30.8 0-.6-.4-1.2-.3-1.2.1 0 1-29.1 1-30.8-.1-.6-.4-1.2-.4-1.2.1 0 .4-4.5.8-10 .8s-10-.3-10-.8c0-.4-.5-.5-1.2-.1-2 1.2-6.8 1.5-6.8.3 0-.5-.5-.7-1.2-.3-1.9 1.2-5.7 1.4-6.4.3-.3-.5-1.1-.6-1.7-.2-1.8 1.1-5.6 1.2-6.3.2-.3-.5-1-.6-1.6-.2-1.8 1-8.2 1.1-9.5 0-.7-.5-1.3-.5-1.3 0 0 1-21 1-22.8-.1-.6-.4-1.2-.3-1.2.1 0 1.2-21.3 1-22.2-.2-.5-.7-.8-.7-.8 0 0 1.2-10.8 1.4-12.6.3-.6-.4-1.4-.5-1.8-.1-1.1 1.1-6.6 1.3-6.6.2 0-.5-.5-.7-1.2-.3-2 1.2-6.8 1.5-6.8.3 0-.5-.5-.7-1.2-.3-1.9 1.2-5.7 1.4-6.4.3-.3-.5-1.1-.6-1.7-.2-1.8 1.1-5.6 1.2-6.3.2-.3-.5-1.1-.6-1.7-.2-.7.4-3 .8-5.2.9-2.2.1-5.8.5-8 .9s-4.8.8-5.7.8c-1 .1-1.8.4-1.8.8s-1.4.9-3 1.3c-1.7.3-3.3.6-3.8.7-1.9.5-16.9 10.4-18.9 12.5-1.3 1.4-2.3 2.2-2.3 1.8 0-.4-2.6 2.6-5.8 6.6-3.1 4-5.6 7.7-5.5 8.1.2.5-.1.9-.6.9s-1.2 1-1.6 2.2c-.4 1.3-.8 2.5-.9 2.8-.1.3-.7 1.4-1.2 2.5-1.3 2.3-2.8 7.6-2.6 8.7.1.5-.2.8-.6.8-.4 0-.9.8-1.1 1.7-.2 1-.5 47.4-.7 103.2-.3 73.2-.1 101.8.7 102.8.8.9.8 1.3 0 1.3-.7 0-.8.8-.2 2.2.5 1.3 1 2.7 1.1 3.3.4 1.4.6 2.4 2.5 8.2.9 2.9 2.1 5.5 2.6 5.9.5.3.7 1 .4 1.5-.4.5-.1.9.4.9.6 0 1.1.7 1.1 1.5s.5 1.5 1 1.5c.6 0 1 .6 1 1.2.1 4.8 21.4 23.6 28.8 25.5 1.2.3 2.2.8 2.2 1.2 0 .4.6.8 1.3.8.6 0 3.5.7 6.2 1.5 2.8.9 5.3 1.6 5.8 1.7.4 0 .8.2 1 .2.1.1 2.4.3 5.1.5 2.8.2 5.6.6 6.3.8.7.3 1.3.1 1.3-.5s.5-.7 1.1-.3c.6.3 5.5.6 11 .6 9.5-.1 9.9 0 10 2.1 0 1.2.2 3 .4 3.9.2 1-.1 1.8-.6 1.8-.6 0-.7.5-.4 1 .4.6.7 5 .7 9.8.1 9 1.2 13.4 4.8 17.9 2.7 3.4 8.4 7.3 11.8 8.1 3.6.8 10.8.6 13-.4.9-.4 2-.8 2.4-.8.4-.1 1.7-.9 2.8-1.8 1.1-1 2.5-1.8 3-1.8.6 0 1.6-1.1 2.2-2.5.6-1.4 1.5-2.5 2-2.5.4 0 .8-.4.8-.9s.5-2.2 1.2-3.8c.6-1.6 1.2-8.7 1.2-16.3l.1-13.5 20-.2c11-.1 20.5-.3 21-.4.6-.1 1.4-.1 2 0 1.1.3 157.8.2 158.5 0 .3-.1.9-.1 1.4 0 1.2.2 60.9.3 62.1 0 .6-.1 1.4-.1 1.9 0 1.2.2 60.9.3 62.1 0 .6-.1 1.4-.1 1.9 0 1.2.2 60.9.3 62.1 0 .6-.1 1.4-.1 1.8 0 3.2.5 27.6.3 28.5-.3 1.5-.9 1.4-1.7 1.7 14.4.2 13 .5 14.9 2.7 19.7 1.5 3.1 6.8 8.3 8.4 8.3.8 0 1.4.5 1.4 1.1 0 .5.4.7 1 .4.6-.3 1-.2 1 .4 0 .5.9.8 2 .6 1.1-.2 2.2 0 2.5.5.7 1.2 10.8.1 11.6-1.2.3-.5.9-.9 1.3-.9.3.1 1 .1 1.4.1 1.2 0 8.2-6.6 8.2-7.8 0-.5.7-1.5 1.5-2.2.8-.6 1.4-1.5 1.3-1.8 0-.4.1-.9.2-1.2.4-.7.8-11.3.9-21.2l.1-8.7 14.3-.1c17.7-.2 17-.1 18.2-.9.6-.4 2.5-.6 4.3-.6 1.7.1 3.2-.2 3.2-.7 0-.4 1-.8 2.3-.8 1.2 0 3.3-.8 4.6-1.7 1.4-.9 2.1-1.1 1.7-.4-.4.6 2.2-.6 5.8-2.9 3.7-2.2 6.9-4 7.1-4 1.1 0 11-9.3 14.5-13.6 5.5-6.9 11.2-18.2 12.5-25.2.2-.9.4-1.7.5-1.7.7 0 1.2-5.5 1.3-13.2.1-5.1.6-9.3 1-9.3.5 0 .5-.5.2-1.1-.4-.6-.6-4.3-.5-8.2.1-4 .2-7.7.1-8.2 0-.6-.1-4-.3-7.8-.2-3.7.1-6.7.5-6.7.5 0 .5-.5.2-1.1-.4-.6-.6-4.3-.5-8.2.1-4 .2-7.7.1-8.2 0-.6-.1-4-.3-7.8-.2-3.7.1-6.7.5-6.7.5 0 .5-.5.2-1.1-.4-.6-.6-4.3-.5-8.2.1-4 .2-7.7.1-8.2-.5-14.4-.4-30.5.2-30.5.5 0 .5-.5.2-1.1-.4-.6-.6-4.3-.5-8.2.1-4 .1-7.9.1-8.7-.3-8.7-.2-24.1.2-24.8.3-.4.2-1.4-.2-2-.4-.7-.5-3.3-.1-5.7.4-2.5.4-4.5.1-4.5-.8 0-.6-12.3.2-13.7.4-.7.2-1.5-.4-1.8-.5-.4-.8-1.3-.5-2 .2-.7.2-1.6-.2-1.9-.3-.4-.8-1.9-.9-3.4-.4-2.9-3.5-12.4-4.3-13.2-.6-.5-3.3-6.1-3.4-7-.5-3.3-18.6-21.7-22.2-22.6-1.3-.4-2.4-.9-2.4-1.3 0-.8-6.6-4.3-8.8-4.7-.8-.1-2.1-.6-3-1-2.6-1.1-4.5-1.6-6.9-1.8-1.3 0-2.3-.3-2.3-.6 0-.9-6.4-1.3-22.5-1.4-8.7-.1-15.3-.5-15.7-1.1-.5-.7-.8-.6-.8 0s-1.6 1.1-3.5 1.1-3.5-.5-3.5-1.1c0-.5-.4-.5-.8.2-.5.8-1.7 1-3.7.4-1.7-.4-2.8-.9-2.6-1.2.4-.4-3.7-9-4.8-9.9-.3-.3-1.5-2.3-2.6-4.5s-3.2-5.4-4.7-7c-1.6-1.7-2.8-3.4-2.8-3.9s-.7-1.6-1.5-2.5c-.8-.9-2.6-2.8-4-4.4-1.4-1.5-2.4-2.7-2.2-2.7.2 0-2.9-3.4-7-7.5s-7.7-7.5-7.9-7.5c-.2 0-1.7-1.1-3.2-2.4-6.7-6-8.9-7.6-17.9-13.2-5.2-3.2-9.8-5.9-10.2-6-1.6-.2-6.1-2.8-6.1-3.6 0-.4-.3-.7-.7-.6-1.4.3-9.3-2.5-9.3-3.3 0-.4-.8-.7-1.7-.7-1 0-3.4-.7-5.4-1.5-2-.9-3.9-1.3-4.3-1-.3.4-.6.1-.6-.6 0-.9-.9-1.2-2.5-.9-1.4.3-2.5.2-2.5-.2s-1.5-1.1-3.2-1.4c-1.8-.3-4.4-.8-5.8-1.1-5.3-1.1-7.6-1.4-11.2-1.7-2.1-.1-3.8-.5-3.8-.8 0-.9-28.4-.5-29.9.4-1 .6-1.2.5-.7-.2.7-1.2.4-1.6-.6-.7zm25.2 46.1c2.5.1 4.5.3 4.5.4 0 .1 7.9 1.1 10.3 1.3.6 0 1.2.3 1.2.6 0 .4 1.2.8 2.6.9 1.5.1 3.3.7 4 1.3.8.6 1.4.8 1.4.4s.8-.1 1.7.6c1.2 1 1.5 1 .9.1-.4-.7.8-.5 3.1.7 2.1 1.1 6.5 3.2 9.8 4.7 6.9 3.2 19.5 11.3 19.5 12.5 0 .5.6.9 1.3.9 2.3 0 20.7 19.4 20.7 21.9 0 .8.3 1.1.7.8.6-.7 2.4 1.8 4.5 6.5.7 1.6 1.6 2.8 2 2.8.4 0 .8.6.8 1.4 0 .7.7 1.9 1.5 2.6.8.6 1.4 1.5 1.3 1.8-.1.6 1.5 4.6 4.2 10.7.7 1.7 2.1 5.7 2.5 7.5.1.3.7 2.3 1.3 4.5 1.4 5.1 2.3 10.1 2.6 14.6.2 2 .5 4 .7 4.5.6 1.2.3 15.8-.5 21.6-1.1 8.8-1.7 12.3-2.3 14.3-.7 2-1.1 3.5-1.6 5.7-.1.7-.5 1.7-.8 2.3-.7 1.2-2.1 6.8-1.9 7.4.1.2-.2.7-.7 1-.5.3-1.5 1.9-2.2 3.6-1.8 3.7-1.7 3.5-2.6 6.2-.4 1.3-1.1 2.3-1.5 2.3-.5 0-1.2 1-1.6 2.2-1 3.4-10.7 16.1-16.7 22.1-7.4 7.3-10.7 10-17.4 14.4-3.2 2.1-6.1 4.2-6.5 4.8-.5.7-.8.7-.8 0 0-.6-.3-.5-.8.1-1.4 2.2-22 10.4-29.7 11.9-1.1.2-2 .4-2 .6 0 1.2-32.8 3.1-35 2-.5-.3-2.1-.6-3.5-.7-1.4-.1-3.8-.5-5.5-.9-1.6-.4-3.7-.7-4.5-.7-.8 0-2.1-.6-2.9-1.2-1.1-.8-1.3-.8-.7.2.5.9-.1.9-2.6-.2-4.1-1.8-7-2.9-8.3-3.1-.5 0-3.2-1.1-5.8-2.3-2.7-1.2-5.3-2.2-5.8-2.2s-.9-.5-.9-1c0-.6-.9-1-2-1s-2-.4-2-.8c0-.5-1.5-1.5-3.3-2.4-5-2.4-16.4-11.5-22.3-17.7-8.5-9.1-10.4-11.3-10.4-12.2 0-.4-1-1.9-2.2-3.2-1.3-1.2-2.4-2.9-2.6-3.7-.2-.8-.7-1.7-1.1-2-.8-.5-1.8-2.9-1.9-4.3 0-.5-.9-1.6-1.9-2.5-1-.9-1.9-2.5-2.1-3.5-.2-.9-1.6-4.7-3.2-8.3-1.6-3.6-2.4-6.2-1.7-5.8.9.6.9.4.1-.7-1-1.2-2.7-6.5-2.9-9.4-.1-.6-.5-2.4-.9-4.1-.4-1.7-.9-5.7-1.1-9-.3-3.2-.6-7.4-.8-9.2-.2-1.7 0-3.7.4-4.3.4-.7.3-2.5-.1-4-.5-1.6-.5-2.9-.1-2.9s.7-1.4.6-3c-.1-1.7.1-3 .5-3s.6-1 .5-2.3c-.1-1.2.5-4.7 1.3-7.7s1.5-6 1.6-6.7c.1-.7.5-1.6.9-1.9.4-.4.7-1.3.7-2s.5-2.5 1.2-4.1c.6-1.5 1.1-3.1 1-3.6-.1-.4.3-.7 1-.7.6 0 .9-.3.5-.6-1.2-1.2 11.1-21.6 16.5-27.4 1.3-1.4 3.3-3.8 4.6-5.4 1.2-1.6 2.2-2.6 2.2-2.3 0 .4 2.3-1.6 5-4.3 2.8-2.8 5.5-5 6-5s1.3-.6 1.7-1.3c1-1.6 10.6-7.7 12.1-7.7.7 0 1.2-.4 1.2-1 0-.5 1.1-1.2 2.5-1.6 1.4-.3 2.5-1 2.5-1.5s.7-.6 1.5-.3c.8.4 1.5.2 1.5-.4 0-.6 1.5-1.4 3.3-1.7 1.7-.4 3.7-1.1 4.2-1.6 2.6-2 21.7-6 31.5-6.6 5.8-.3 10.7-.7 10.9-.9.2-.2.9 0 1.4.3.6.4 3.2.8 5.7.9zM176.2 446.5c.5.7.8.7.8-.1 0-1.1 95.3-1.2 99.6-.1 5.6 1.4 14.4 10.1 14.4 14.1 0 .9.4 1.6.8 1.6 2.2 0-.1 16.8-2.4 17.7-.8.3-1.2.9-.9 1.3.3.5-.5 1.6-1.7 2.4-1.2.9-1.8 1.6-1.3 1.6 1.5 0-7.9 4.6-11 5.4-1.4.4-27.7.6-58.4.6-58.5 0-58.5 0-65.8-4.5-2.9-1.8-7.2-7.8-8.1-11.5-.9-3.5-.8-13 .1-13 .6 0 .8-.3.4-.6-.8-.8 2-6.4 4.3-8.5 3.2-3.1 10.2-7 11.6-6.5.7.3 1.5.2 1.8-.2.7-1.2 15-.9 15.8.3zm98.6 90.5c.3.3 1.9.7 3.5.9 4 .4 11.7 8.7 13.2 14.3.2.5.4.9.5 1 .8.9.6 10.8-.2 10.8-.5 0-.6.5-.3 1 1.8 2.9-8.8 14.9-13.5 15.3-1.1.1-2 .5-2 1 0 .4-.4.6-.8.3-.4-.2-1.4-.1-2.2.4-.9.5-1.9.5-2.6-.1-.7-.6-1.5-.6-1.8-.1-.3.5-2.6.6-5 .2-2.5-.4-5.1-.3-5.8.1-.6.4-2 .3-3-.2-1.1-.6-1.8-.6-1.8 0 0 1.2-3.3.9-4.2-.4-.5-.6-.8-.5-.8.4 0 1-.3 1.1-1.4.2-.8-.7-1.7-.8-2-.3-.3.5-2.6.6-5 .2-2.5-.4-5.1-.3-5.8.1-.6.4-2 .3-3-.2-1.1-.6-1.8-.6-1.8 0 0 1.2-3.3.9-4.2-.4-.5-.6-.8-.5-.8.4 0 1-.3 1.1-1.4.2-.8-.7-1.7-.8-2-.3-.3.5-2.6.6-5 .2-2.5-.4-5.1-.3-5.8.1-.6.4-2 .3-3-.2-1.1-.6-1.8-.6-1.8 0 0 1.2-3.3.9-4.2-.4-.5-.6-.8-.5-.8.4 0 1-.3 1.1-1.4.2-.9-.8-1.6-.8-2-.2-.4.6-1.5.7-2.9.2-1.4-.5-3-.5-4 0-1.2.7-1.7.6-1.7-.2 0-.7-.4-.8-1.2-.2-1.2.9-3.4.9-8.8 0-1.4-.3-3.3 0-4.2.5-1.2.6-1.8.5-1.8-.2 0-.6-.5-.8-1.2-.4-1.4.9-7.8 1.2-7.8.4 0-.3-1.4-.6-3.1-.6-4.3-.2-7.7-2.1-12.4-6.9-4.8-4.8-6.3-9.2-6-16.8.2-6.2 3.5-12.8 8-16.2 6.7-5 7.1-5 68.1-4.9 31.3.1 57 .3 57.2.4z"/><path d="M496.6 353.8c-.3.5-2.5 1-4.8 1.1-3.9.1-8.3.7-8.3 1.1 0 .2-1.6.5-6 1.4-1.6.3-3.1 1-3.3 1.5-.2.6-1 .7-1.8.4-.8-.3-1.4 0-1.4.6s-.3 1-.7.9c-2.8-.5-14.2 7.1-21.3 14.2-9.3 9.4-16 22.3-18.7 36-1 5.2-.9 18.7.3 23.7.6 2.9.9 5.3.6 5.3-.3 0-.1.5.6 1.2s1.2 2.2 1.2 3.5c0 1.3.5 2.3 1 2.3.6 0 1 .7 1 1.5 0 2 3.9 9.8 5.4 10.7.6.4.8.8.4.8-.5 0 0 .8 1 1.8 2.9 3.2 5.2 6.2 4.6 6.2-.3 0 .9 1.2 2.7 2.7 1.8 1.6 4.4 3.8 5.8 5.1 1.3 1.2 5 3.7 8 5.4 3.1 1.7 5.8 3.4 6.1 3.7.3.3 1.3.7 2.4.9 1 .2 2.8.7 4 1.2 1.1.4 2.4.9 2.8 1 8.7 2.4 12 2.8 21.6 2.4 12.5-.5 13.2-.5 13.2-1.4 0-.3.8-.6 1.8-.7 6.7-.4 19.8-7.2 28.3-14.8 4.7-4.2 12.9-14.4 12.9-16.1 0-.8.4-1.4.8-1.4 1.3 0 6.9-14.6 7.9-20.5 1.3-7.8.6-28.2-.9-29.1-.5-.3-.6-1-.3-1.5.4-.5.1-.9-.5-.9s-.9-.4-.6-.9c.7-1-3.4-11.4-4.6-11.9-.4-.2-.8-.8-.8-1.4 0-2.8-12.5-17.4-19.1-22.3-3.5-2.6-7.5-4.9-8.8-5.1-.8-.2-1.8-.9-2.2-1.6-.5-.7-.9-1-.9-.6s-1.9-.2-4.2-1.2c-2.4-1-5.4-2.1-6.8-2.4-1.4-.3-3.6-.7-4.9-1-1.3-.3-4.2-.6-6.5-.7-2.2-.1-4.6-.6-5.3-1.1-.6-.5-1.4-.5-1.7 0z"/></svg>